# 3ds Max Wavefront OBJ Exporter v0.97b - (c)2007 guruware
# File Created: 01.12.2016 19:17:45

mtllib 30212562.mtl

#
# object model
#

v  131.9843 779.9568 23.5013
v  131.9843 699.9568 23.5054
v  131.9843 699.9568 31.5013
v  131.9843 779.9568 31.5013
v  175.9843 779.9568 31.5013
v  175.9843 699.9568 31.5013
v  175.9843 779.9568 73.5013
v  175.9843 699.9568 73.5013
v  181.9843 699.9568 73.5013
v  181.9843 779.9568 73.5013
v  181.9843 699.9568 23.5013
v  181.9843 779.9568 23.5013
v  68.0028 779.9568 23.5013
v  68.0028 779.9568 31.5013
v  68.0028 699.9568 31.5013
v  68.0028 699.9568 23.5055
v  24.0028 779.9568 31.5013
v  24.0028 699.9568 31.5013
v  24.0028 779.9568 73.5013
v  24.0028 699.9568 73.5013
v  18.0028 779.9568 73.5013
v  18.0028 699.9568 73.5013
v  18.0028 699.9568 23.5013
v  18.0028 779.9568 23.5013
v  7.0000 7.4998 23.5001
v  7.0000 7.4998 21.0001
v  61.9999 7.4998 21.0001
v  62.0000 7.4998 23.5001
v  7.0000 709.4999 21.0002
v  7.0000 709.4999 23.5002
v  192.9999 709.4999 23.5002
v  193.0001 7.4999 23.5001
v  193.0001 7.4999 21.0001
v  193.0000 709.4999 21.0002
v  137.9998 7.4999 21.0001
v  137.9999 709.4999 21.0002
v  61.9999 709.4999 23.5002
v  137.9998 7.4999 23.5001
v  61.9999 709.4999 21.0002
v  137.9998 709.4999 23.5002
v  137.9998 791.4999 21.0002
v  61.9999 791.4999 21.0002
v  61.9999 791.4999 23.5002
v  137.9998 791.4999 23.5002
v  182.0000 795.9999 566.5002
v  182.0000 799.9998 566.5002
v  182.0000 799.9998 593.5002
v  182.0000 795.9999 593.5002
v  18.0001 795.9999 566.5002
v  18.0001 795.9999 593.5002
v  18.0001 799.9999 593.5002
v  18.0001 799.9999 566.5002
v  199.0000 799.9999 566.5002
v  199.0000 802.0000 566.5002
v  199.0000 802.0000 593.5002
v  199.0000 799.9999 593.5002
v  1.0001 799.9999 593.5002
v  1.0001 801.9999 593.5002
v  1.0001 801.9999 566.5002
v  1.0001 799.9999 566.5002
v  30.0000 0.9998 0.0012
v  30.0000 18.9998 0.0012
v  80.0000 18.9998 0.0012
v  80.0000 0.9998 0.0012
v  30.0000 0.9998 10.0011
v  80.0000 0.9998 10.0011
v  80.0000 18.9998 10.0011
v  30.0000 18.9998 10.0011
v  120.0001 0.9998 0.0011
v  120.0001 18.9998 0.0011
v  170.0001 18.9998 0.0012
v  170.0001 0.9998 0.0012
v  120.0001 0.9998 10.0011
v  170.0001 0.9998 10.0011
v  170.0001 18.9998 10.0011
v  120.0001 18.9998 10.0011
v  178.9313 715.3072 14.3574
v  132.0000 715.3072 14.3574
v  132.0000 715.3072 3.6883
v  182.0000 715.3072 3.6884
v  182.0000 715.3072 60.0001
v  178.9313 715.3072 60.0001
v  178.9313 764.9578 14.3574
v  178.9313 764.9578 60.0001
v  181.9999 764.9578 60.0001
v  181.9999 764.9578 3.6884
v  131.9999 764.9578 3.6883
v  131.9999 764.9578 14.3574
v  21.0248 765.0269 14.3574
v  67.9999 765.0269 14.3574
v  67.9999 765.0269 3.6884
v  18.0000 765.0269 3.6884
v  18.0000 765.0269 60.0001
v  21.0248 765.0269 60.0001
v  21.0248 715.3763 14.3574
v  21.0248 715.3763 60.0002
v  18.0000 715.3763 60.0002
v  18.0000 715.3763 3.6884
v  68.0000 715.3763 3.6884
v  68.0000 715.3763 14.3574
v  182.0001 0.9997 10.0002
v  182.0001 18.9997 10.0002
v  181.9999 18.9997 598.0002
v  181.9999 0.9997 598.0002
v  18.0001 0.9997 10.0002
v  18.0000 0.9997 598.0002
v  18.0000 18.9997 598.0002
v  18.0001 18.9997 10.0002
v  0.0000 0.0001 600.0000
v  -0.0000 0.0001 10.0000
v  18.0000 0.0001 10.0000
v  18.0000 0.0001 600.0000
v  -0.0000 800.0001 600.0000
v  18.0000 800.0001 600.0000
v  18.0000 800.0001 10.0000
v  -0.0000 800.0001 10.0000
v  182.0000 795.9999 22.5006
v  182.0000 799.9998 22.5006
v  182.0000 799.9998 49.5006
v  182.0000 795.9999 49.5006
v  18.0001 795.9999 22.5006
v  18.0001 795.9999 49.5006
v  18.0001 799.9999 49.5006
v  18.0001 799.9999 22.5006
v  199.0000 799.9999 22.5006
v  199.0000 802.0000 22.5006
v  199.0000 802.0000 49.5006
v  199.0000 799.9999 49.5006
v  1.0001 799.9999 49.5006
v  1.0001 801.9999 49.5006
v  1.0001 801.9999 22.5006
v  1.0001 799.9999 22.5006
v  200.0002 0.0001 600.0000
v  182.0002 0.0001 600.0000
v  182.0002 0.0001 10.0000
v  200.0002 0.0001 10.0000
v  200.0002 800.0001 600.0000
v  200.0002 800.0001 10.0000
v  182.0002 800.0001 10.0000
v  182.0002 800.0001 600.0000
v  88.1275 780.9999 26.8990
v  88.1275 795.9998 26.8990
v  58.1275 795.9998 26.8989
v  58.1275 780.9999 26.8990
v  88.1275 801.9999 22.4990
v  88.1275 801.9999 18.9990
v  58.1275 801.9999 18.9989
v  58.1275 801.9999 22.4989
v  88.1275 795.9999 22.4990
v  58.1275 795.9999 22.4990
v  88.1275 793.9999 20.9990
v  88.1275 793.9999 23.5434
v  58.1275 793.9999 23.5434
v  58.1275 793.9999 20.9989
v  88.1275 780.9999 20.9990
v  58.1275 780.9999 20.9989
v  58.1275 780.9999 18.9989
v  88.1275 780.9999 18.9990
v  58.1275 780.9999 23.5434
v  88.1275 780.9999 23.5434
v  142.1275 780.9999 26.8990
v  142.1275 795.9998 26.8990
v  112.1275 795.9998 26.8990
v  112.1275 780.9999 26.8990
v  142.1275 801.9999 22.4990
v  142.1275 801.9999 18.9990
v  112.1275 801.9999 18.9990
v  112.1275 801.9999 22.4990
v  142.1275 795.9999 22.4990
v  112.1275 795.9999 22.4990
v  142.1275 793.9999 20.9990
v  142.1275 793.9999 23.5434
v  112.1275 793.9999 23.5435
v  112.1275 793.9999 20.9990
v  142.1275 780.9999 20.9990
v  112.1275 780.9999 20.9990
v  112.1275 780.9999 18.9990
v  142.1275 780.9999 18.9990
v  112.1275 780.9999 23.5435
v  142.1275 780.9999 23.5434
# 180 vertices

vn -1.0000 0.0000 -0.0000
vn 0.0000 0.0000 1.0000
vn -0.0000 0.0000 1.0000
vn 0.0000 -1.0000 -0.0000
vn 0.0000 1.0000 -0.0000
vn 1.0000 0.0000 -0.0000
vn -0.0001 -0.0001 -1.0000
vn -0.0000 -0.0000 -1.0000
vn 0.0000 0.0000 -1.0000
vn -0.0001 -0.0000 -1.0000
vn 0.0001 -0.0001 -1.0000
vn 0.0001 -0.0000 -1.0000
vn 0.0000 -0.0000 -1.0000
vn -1.0000 -0.0000 -0.0000
vn 1.0000 0.0000 0.0000
vn -0.0000 0.0000 -1.0000
vn 0.0000 -0.0000 1.0000
vn 0.0000 1.0000 0.0000
vn -0.0000 1.0000 -0.0000
vn -0.0000 -0.0000 1.0000
vn 0.0000 -1.0000 0.0000
vn -1.0000 -0.0000 0.0000
vn -0.0000 1.0000 0.0000
# 23 vertex normals

vt 57.1773 85.6401 0.0000
vt 57.1731 5.6401 0.0000
vt 49.1773 5.6401 0.0000
vt 49.1773 85.6401 0.0000
vt 13.1773 85.6401 0.0000
vt 57.1773 5.6401 0.0000
vt 13.1773 5.6401 0.0000
vt 7.1773 85.6401 0.0000
vt 7.1773 5.6401 0.0000
vt 7.1773 20.6401 0.0000
vt 13.1773 20.6401 0.0000
vt 13.1773 62.6401 0.0000
vt 7.1773 70.6401 0.0000
vt 57.1773 62.6401 0.0000
vt 57.1773 70.6359 0.0000
vt 57.1773 70.6401 0.0000
vt 93.5000 -0.7499 -391.5000
vt 93.5000 1.7501 -391.5000
vt 38.5001 1.7501 -391.5000
vt 38.5001 -0.7499 -391.5000
vt -0.7500 310.5000 -92.5001
vt -0.7501 -391.5000 -92.5000
vt 1.7499 -391.5000 -92.5000
vt 1.7500 310.5000 -92.5001
vt -0.7501 310.5000 93.4999
vt -0.7500 -391.4999 93.5001
vt 1.7500 -391.4999 93.5001
vt 1.7499 310.5000 93.4999
vt -92.4999 310.5000 1.7499
vt -92.5001 -391.4999 1.7500
vt -37.4998 -391.4999 1.7501
vt -37.4998 310.5001 1.7500
vt -92.5001 310.5000 -0.7500
vt -92.5000 -391.5000 -0.7499
vt -37.5001 -391.5000 -0.7499
vt -37.5001 310.5000 -0.7500
vt -37.4998 1.7501 -391.4999
vt -37.4998 -0.7499 -391.4999
vt 38.5001 -391.5000 1.7501
vt 93.5000 -391.5000 1.7501
vt 93.5001 310.5000 1.7500
vt 38.5001 310.5000 1.7500
vt 38.4998 -391.4999 -0.7499
vt 38.4998 310.5000 -0.7500
vt 38.4998 1.7499 392.5000
vt -37.5001 1.7499 392.5000
vt -37.5001 -0.7501 392.5000
vt 38.4998 -0.7501 392.5000
vt 38.5001 392.5000 1.7499
vt -37.4998 392.5000 1.7499
vt 38.4998 392.5000 -0.7501
vt -37.5001 392.5000 -0.7501
vt -92.5001 1.7500 -391.4999
vt -92.5001 -0.7500 -391.4999
vt 93.5001 -391.4999 -0.7500
vt 93.4999 310.5000 -0.7501
vt 38.4998 -0.7500 310.5000
vt 93.4999 -0.7501 310.5000
vt 93.4999 1.7499 310.5000
vt 38.4998 1.7500 310.5001
vt -0.7501 392.5000 38.4998
vt -0.7500 310.5000 38.4998
vt 1.7500 310.5001 38.4998
vt 1.7499 392.5000 38.4998
vt -37.5001 1.7500 310.5000
vt -92.5001 1.7500 310.5000
vt -92.5001 -0.7500 310.5000
vt -37.5001 -0.7500 310.5000
vt 1.7500 310.5000 -37.5001
vt 1.7501 392.5000 -37.5001
vt -0.7499 392.5000 -37.5001
vt -0.7500 310.5000 -37.5001
vt 14.0000 -55.0768 82.4999
vt 14.0000 -51.0770 82.4999
vt -13.0000 -51.0770 82.4999
vt -13.0000 -55.0768 82.4999
vt -13.0001 -55.0768 -81.5000
vt 13.9999 -55.0768 -81.5000
vt 13.9999 -51.0768 -81.5000
vt -13.0001 -51.0768 -81.5000
vt 82.4999 -46.0000 3.5000
vt 82.4999 -19.0000 3.5000
vt -81.5000 -19.0000 3.5000
vt -81.5000 -46.0000 3.5000
vt 14.0000 -51.0769 99.4999
vt 14.0000 -49.0768 99.4999
vt -13.0000 -49.0768 99.4999
vt -13.0000 -51.0769 99.4999
vt 13.9999 -51.0768 -98.5000
vt 13.9999 -49.0768 -98.5000
vt -13.0001 -49.0768 -98.5000
vt -13.0001 -51.0768 -98.5000
vt 99.4999 -13.0000 3.5000
vt 99.4999 14.0000 3.5000
vt -98.5000 14.0001 3.5000
vt -98.5000 -13.0000 3.5000
vt 99.4999 16.0001 3.4999
vt 82.4999 16.0002 3.4999
vt 82.4999 20.0001 3.4999
vt -81.5000 20.0001 3.5000
vt -81.5000 16.0001 3.5000
vt -98.5000 16.0001 3.5000
vt 82.5000 -38.5767 1.4999
vt 82.5000 -65.5767 1.4999
vt 99.5000 -65.5767 1.4999
vt 99.5000 -38.5767 1.4999
vt -81.5000 -15.0000 3.5000
vt 82.4999 -15.0001 3.4999
vt 99.4999 -15.0001 3.4999
vt -98.5000 -15.0000 3.5000
vt -81.4999 -65.5768 1.4998
vt -81.4999 -38.5768 1.4998
vt -98.4999 -38.5768 1.4999
vt -98.4999 -65.5768 1.4999
vt 27.5445 -5.2179 16.3096
vt 9.5445 -5.2179 16.3096
vt 9.5445 -55.2179 16.3096
vt 27.5445 -55.2179 16.3096
vt -26.5445 -5.2179 26.3095
vt -26.5445 -55.2179 26.3095
vt -8.5445 -55.2179 26.3095
vt -8.5445 -5.2179 26.3095
vt 16.3096 -5.2179 -26.5445
vt 16.3096 -55.2179 -26.5445
vt 26.3095 -55.2179 -26.5445
vt 26.3095 -5.2179 -26.5445
vt -15.3096 -26.5445 -55.2179
vt -15.3096 -8.5445 -55.2179
vt -25.3095 -8.5445 -55.2179
vt -25.3095 -26.5445 -55.2179
vt -15.3096 -55.2179 -8.5445
vt -15.3096 -5.2179 -8.5445
vt -25.3095 -5.2179 -8.5445
vt -25.3095 -55.2179 -8.5445
vt 16.3096 -8.5445 -5.2179
vt 16.3096 -26.5445 -5.2179
vt 26.3095 -26.5445 -5.2179
vt 26.3095 -8.5445 -5.2179
vt 27.5446 -695.2180 16.3096
vt 9.5446 -695.2180 16.3096
vt 9.5446 -745.2180 16.3096
vt 27.5446 -745.2180 16.3096
vt -26.5446 -695.2180 26.3096
vt -26.5446 -745.2180 26.3096
vt -8.5446 -745.2180 26.3096
vt -8.5446 -695.2180 26.3096
vt 16.3096 -695.2180 -26.5446
vt 16.3096 -745.2180 -26.5446
vt 26.3096 -745.2180 -26.5446
vt 26.3096 -695.2180 -26.5446
vt -15.3096 -26.5446 -745.2180
vt -15.3096 -8.5446 -745.2180
vt -25.3096 -8.5446 -745.2180
vt -25.3096 -26.5446 -745.2180
vt -15.3096 -745.2180 -8.5446
vt -15.3096 -695.2180 -8.5446
vt -25.3096 -695.2180 -8.5446
vt -25.3096 -745.2180 -8.5446
vt 16.3096 -8.5446 -695.2180
vt 16.3096 -26.5446 -695.2180
vt 26.3096 -26.5446 -695.2180
vt 26.3096 -8.5446 -695.2180
vt -71.3064 -219.5255 -93.7341
vt -12.3743 -219.4624 -93.7341
vt -12.3887 -206.0651 -93.7341
vt -75.1741 -206.1326 -93.7341
vt -75.0983 -276.8437 -93.7341
vt -71.2449 -276.8395 -93.7341
vt 80.2118 -239.1282 -28.7341
vt 79.9490 -296.4414 -28.7341
vt 83.8023 -296.4591 -28.7341
vt 84.1265 -225.7487 -28.7341
vt 21.3417 -225.4609 -28.7341
vt 21.2803 -238.8581 -28.7341
vt 17.0196 -295.5562 76.3468
vt 74.3336 -295.5562 76.3468
vt 74.3336 -233.2096 76.3468
vt 17.0196 -233.2096 76.3468
vt -94.9367 -295.5562 77.8468
vt -24.2255 -295.5562 77.8468
vt -24.2255 -233.2096 77.8468
vt -94.9367 -233.2096 77.8468
vt -93.1549 -295.5562 -17.6175
vt -30.3694 -295.5562 -17.6175
vt -30.3693 -233.2096 -17.6175
vt -93.1548 -233.2096 -17.6175
vt 10.8221 -295.5562 27.8468
vt 24.2193 -295.5562 27.8468
vt 24.2193 -233.2096 27.8468
vt 10.8221 -233.2096 27.8468
vt 11.3184 -295.5562 -29.1175
vt 70.2505 -295.5562 -29.1175
vt 70.2504 -233.2096 -29.1175
vt 11.3183 -233.2096 -29.1175
vt 63.8578 -295.5562 -77.6175
vt 67.7111 -295.5562 -77.6175
vt 67.7110 -233.2096 -77.6175
vt 63.8577 -233.2096 -77.6175
vt 316.4619 -297.6731 -27.7953
vt 376.1202 -297.3111 -27.7953
vt 376.0379 -283.7614 -27.7953
vt 312.5381 -284.1470 -27.7953
vt 312.9724 -355.6628 -27.7953
vt 316.8139 -355.6395 -27.7953
vt 1688.7014 -314.1469 -92.7953
vt 1688.7013 -372.1145 -92.7953
vt 1692.5428 -372.1145 -92.7953
vt 1692.5431 -300.5970 -92.7953
vt 1629.0410 -300.5970 -92.7953
vt 1629.0410 -314.1469 -92.7953
vt 961.6846 -310.1157 -684.6532
vt 903.7178 -310.1157 -684.6532
vt 903.7178 -373.1728 -684.6532
vt 961.6846 -373.1728 -684.6532
vt 1073.7166 -310.1157 -686.1532
vt 1002.1999 -310.1157 -686.1532
vt 1002.1999 -373.1728 -686.1532
vt 1073.7166 -373.1728 -686.1532
vt 1681.4015 -310.1154 -17.6175
vt 1617.8993 -310.1154 -17.6175
vt 1617.8993 -373.1731 -17.6175
vt 1681.4015 -373.1731 -17.6175
vt 967.6318 -310.1157 -636.1532
vt 954.0823 -310.1157 -636.1532
vt 954.0823 -373.1728 -636.1532
vt 967.6318 -373.1728 -636.1532
vt 357.6861 -310.1157 -29.1175
vt 298.0269 -310.1157 -29.1175
vt 298.0269 -373.1728 -29.1175
vt 357.6862 -373.1728 -29.1175
vt 304.7772 -310.1157 -77.6175
vt 300.9359 -310.1157 -77.6175
vt 300.9359 -373.1728 -77.6175
vt 304.7772 -373.1728 -77.6175
vt 294.1499 -8.5000 -81.5000
vt 294.1499 9.5000 -81.5000
vt -293.8501 9.5000 -81.4998
vt -293.8501 -8.5000 -81.4998
vt -293.1500 -8.5000 82.4999
vt 294.8500 -8.5000 82.5002
vt 294.8500 9.5000 82.5002
vt -293.1500 9.5000 82.4999
vt -293.1499 -81.5000 -8.5000
vt 294.8501 -81.4998 -8.5000
vt 294.8500 82.5002 -8.5000
vt -293.1500 82.4999 -8.5000
vt -8.5001 -81.4998 -293.5000
vt 9.4999 -81.4998 -293.5000
vt 9.4999 82.5001 -293.5000
vt -8.5001 82.5001 -293.5000
vt -293.8501 -81.4998 9.5000
vt 294.1499 -81.5000 9.5000
vt 294.1500 82.4999 9.5000
vt -293.8500 82.5002 9.5000
vt -8.5000 -81.5000 294.5000
vt 9.5000 -81.5000 294.5000
vt 9.5000 82.4999 294.5000
vt -8.5000 82.4999 294.5000
vt -8.5001 -294.5000 0.5000
vt -8.4999 295.5000 0.5000
vt 9.5001 295.5000 0.5000
vt 9.4999 -294.5000 0.5000
vt -8.5001 -294.5001 400.5000
vt 9.4999 -294.5001 400.5000
vt 9.5001 295.4999 400.5000
vt -8.4999 295.4999 400.5000
vt -8.5001 -399.5000 -294.5001
vt 9.4999 -399.5000 -294.5001
vt 9.4999 400.5000 -294.5001
vt -8.5001 400.5000 -294.5001
vt -294.5001 -399.5000 9.4999
vt 295.4999 -399.5000 9.5001
vt 295.4999 400.5000 9.5001
vt -294.5001 400.5000 9.4999
vt -8.5000 -399.5000 0.4999
vt 9.5000 -399.5000 0.4999
vt 9.5000 400.5000 0.4999
vt -8.5000 400.5000 0.4999
vt -294.4999 -399.5000 -8.4999
vt 295.5001 -399.5000 -8.5001
vt 295.5001 400.5000 -8.5001
vt -294.4999 400.5000 -8.4999
vt 369.3118 300.3528 0.5000
vt 387.3118 300.3528 0.5000
vt 387.3120 890.3528 0.5000
vt 369.3120 890.3528 0.5000
vt 369.3118 300.3527 400.5000
vt 369.3120 890.3527 400.5000
vt 387.3120 890.3527 400.5000
vt 387.3118 300.3527 400.5000
vt 369.3118 195.3528 -294.5001
vt 369.3118 995.3528 -294.5001
vt 387.3118 995.3528 -294.5001
vt 387.3118 195.3528 -294.5001
vt 83.3118 195.3528 9.4999
vt 83.3118 995.3528 9.4999
vt 673.3118 995.3528 9.5001
vt 673.3118 195.3528 9.5001
vt 369.3119 195.3528 0.4999
vt 369.3119 995.3528 0.4999
vt 387.3119 995.3528 0.4999
vt 387.3119 195.3528 0.4999
vt 83.3120 195.3528 -8.4999
vt 83.3120 995.3528 -8.4999
vt 673.3120 995.3528 -8.5001
vt 673.3120 195.3528 -8.5001
vt -516.1531 -5.2341 -44.5175
vt -516.1531 9.7657 -44.5175
vt -546.1531 9.7657 -44.5174
vt -546.1531 -5.2341 -44.5175
vt -516.1531 -40.1175 15.7659
vt -516.1531 -36.6175 15.7659
vt -546.1531 -36.6174 15.7659
vt -546.1531 -40.1174 15.7659
vt -516.1531 9.7659 -40.1175
vt -516.1531 15.7659 -40.1175
vt -546.1531 15.7659 -40.1174
vt -546.1531 9.7659 -40.1175
vt -516.1531 -44.5175 9.7657
vt -516.1531 -40.1175 9.7659
vt -546.1531 -40.1175 9.7659
vt -546.1531 -44.5174 9.7657
vt 517.1531 -38.6175 7.7659
vt 517.1531 -41.1619 7.7659
vt 547.1531 -41.1619 7.7659
vt 547.1531 -38.6174 7.7659
vt -516.1531 -5.2341 -38.6175
vt -516.1531 7.7659 -38.6175
vt -546.1531 7.7659 -38.6174
vt -546.1531 -5.2341 -38.6174
vt 547.1531 -38.6174 -5.2341
vt 547.1531 -36.6174 -5.2341
vt 517.1531 -36.6175 -5.2341
vt 517.1531 -38.6175 -5.2341
vt 517.1531 15.7659 -36.6175
vt 517.1531 -5.2341 -36.6175
vt 547.1531 -5.2341 -36.6174
vt 547.1531 15.7659 -36.6174
vt 547.1531 -44.5175 -5.2341
vt 547.1531 -41.1619 -5.2341
vt 517.1531 -41.1619 -5.2341
vt 517.1531 -44.5175 -5.2341
vt 547.1531 7.7659 -41.1619
vt 517.1531 7.7659 -41.1619
vt 517.1531 -5.2341 -41.1619
vt 547.1531 -5.2341 -41.1619
vt -36.6175 15.7659 -516.1531
vt -40.1175 15.7659 -516.1531
vt -40.1175 9.7659 -516.1531
vt -44.5175 9.7657 -516.1531
vt -44.5175 -5.2341 -516.1531
vt -41.1619 -5.2341 -516.1531
vt -41.1619 7.7659 -516.1531
vt -38.6175 7.7659 -516.1531
vt -38.6175 -5.2341 -516.1531
vt -36.6175 -5.2341 -516.1531
vt 42.1619 7.7659 -546.1531
vt 42.1619 -5.2341 -546.1531
vt 45.5175 -5.2341 -546.1531
vt 45.5174 9.7657 -546.1531
vt 41.1175 9.7659 -546.1531
vt 41.1174 15.7659 -546.1531
vt 37.6174 15.7659 -546.1531
vt 37.6174 -5.2341 -546.1531
vt 39.6174 -5.2341 -546.1531
vt 39.6174 7.7659 -546.1531
vt -62.1531 -5.2341 -44.5175
vt -62.1531 9.7657 -44.5175
vt -92.1531 9.7657 -44.5175
vt -92.1531 -5.2341 -44.5175
vt -62.1531 -40.1175 15.7659
vt -62.1531 -36.6175 15.7659
vt -92.1531 -36.6175 15.7659
vt -92.1531 -40.1175 15.7659
vt -62.1531 9.7659 -40.1175
vt -62.1531 15.7659 -40.1175
vt -92.1531 15.7659 -40.1175
vt -92.1531 9.7659 -40.1175
vt -62.1531 -44.5175 9.7657
vt -62.1531 -40.1175 9.7659
vt -92.1531 -40.1175 9.7659
vt -92.1531 -44.5175 9.7657
vt 63.1531 -38.6175 7.7659
vt 63.1531 -41.1619 7.7659
vt 93.1531 -41.1620 7.7659
vt 93.1531 -38.6175 7.7659
vt -62.1531 -5.2341 -38.6175
vt -62.1531 7.7659 -38.6175
vt -92.1531 7.7659 -38.6175
vt -92.1531 -5.2341 -38.6175
vt 93.1531 -38.6175 -5.2341
vt 93.1531 -36.6175 -5.2341
vt 63.1531 -36.6175 -5.2341
vt 63.1531 -38.6175 -5.2341
vt 63.1531 15.7659 -36.6175
vt 63.1531 -5.2341 -36.6175
vt 93.1531 -5.2341 -36.6175
vt 93.1531 15.7659 -36.6175
vt 93.1531 -44.5175 -5.2341
vt 93.1531 -41.1620 -5.2341
vt 63.1531 -41.1619 -5.2341
vt 63.1531 -44.5175 -5.2341
vt 93.1531 7.7659 -41.1620
vt 63.1531 7.7659 -41.1619
vt 63.1531 -5.2341 -41.1619
vt 93.1531 -5.2341 -41.1620
vt -36.6175 15.7659 -62.1531
vt -40.1175 15.7659 -62.1531
vt -40.1175 9.7659 -62.1531
vt -44.5175 9.7657 -62.1531
vt -44.5175 -5.2341 -62.1531
vt -41.1619 -5.2341 -62.1531
vt -41.1619 7.7659 -62.1531
vt -38.6175 7.7659 -62.1531
vt -38.6175 -5.2341 -62.1531
vt -36.6175 -5.2341 -62.1531
vt 42.1620 7.7659 -92.1531
vt 42.1620 -5.2341 -92.1531
vt 45.5175 -5.2341 -92.1531
vt 45.5175 9.7657 -92.1531
vt 41.1175 9.7659 -92.1531
vt 41.1175 15.7659 -92.1531
vt 37.6175 15.7659 -92.1531
vt 37.6175 -5.2341 -92.1531
vt 39.6175 -5.2341 -92.1531
vt 39.6175 7.7659 -92.1531
# 426 texture coords

g model
usemtl wire_135059008
s 1
f 1/1/1 2/2/1 3/3/1 4/4/1 
s 2
f 5/5/2 4/1/3 3/6/3 6/7/3 
s 1
f 7/8/1 5/4/1 6/3/1 8/9/1 
s 4
f 7/5/2 8/7/2 9/9/2 10/8/2 
s 8
f 9/10/4 8/11/4 6/12/4 11/13/4 
f 3/14/4 2/15/4 11/13/4 6/12/4 
f 5/12/5 7/11/5 10/10/5 12/13/5 
f 12/13/5 1/16/5 4/14/5 5/12/5 
s 2
f 11/6/6 12/1/6 10/8/6 9/9/6 
s 16
f 2/6/7 1/1/8 12/8/9 11/9/10 
s 1
f 13/1/6 14/4/6 15/3/6 16/2/6 
s 2
f 17/5/2 18/7/2 15/6/2 14/1/2 
s 1
f 19/8/6 20/9/6 18/3/6 17/4/6 
s 4
f 19/5/2 21/8/2 22/9/2 20/7/2 
s 8
f 22/10/4 23/13/4 18/12/4 20/11/4 
f 15/14/4 18/12/4 23/13/4 16/15/4 
f 17/12/5 24/13/5 21/10/5 19/11/5 
f 24/13/5 17/12/5 14/14/5 13/16/5 
s 2
f 23/6/1 22/9/1 21/8/1 24/1/1 
s 16
f 16/6/11 23/9/12 24/8/9 13/1/13 
s 1
f 13/1/6 14/4/6 15/3/6 16/2/6 
s 2
f 17/5/2 18/7/2 15/6/2 14/1/2 
s 1
f 19/8/6 20/9/6 18/3/6 17/4/6 
s 4
f 19/5/2 21/8/2 22/9/2 20/7/2 
s 8
f 22/10/4 23/13/4 18/12/4 20/11/4 
f 15/14/4 18/12/4 23/13/4 16/15/4 
f 17/12/5 24/13/5 21/10/5 19/11/5 
f 24/13/5 17/12/5 14/14/5 13/16/5 
s 2
f 23/6/1 22/9/1 21/8/1 24/1/1 
s 16
f 16/6/11 23/9/12 24/8/9 13/1/13 
s 1
f 25/17/4 26/18/4 27/19/4 28/20/4 
s 2
f 29/21/14 26/22/14 25/23/14 30/24/14 
f 31/25/15 32/26/15 33/27/6 34/28/15 
s 4
f 34/29/9 33/30/9 35/31/16 36/32/16 
f 30/33/17 25/34/17 28/35/17 37/36/17 
s 1
f 27/19/4 35/37/4 38/38/4 28/20/4 
s 4
f 27/39/16 26/40/9 29/41/9 39/42/16 
f 28/35/17 38/43/17 40/44/17 37/36/17 
s 1
f 41/45/5 42/46/5 43/47/5 44/48/5 
s 4
f 36/32/16 39/42/16 42/49/9 41/50/16 
f 44/51/17 43/52/17 37/36/17 40/44/17 
f 35/31/16 27/39/16 39/42/16 36/32/16 
s 1
f 35/37/4 33/53/4 32/54/4 38/38/4 
s 4
f 38/43/17 32/55/17 31/56/17 40/44/17 
s 1
f 40/57/18 31/58/18 34/59/18 36/60/18 
s 2
f 44/61/6 40/62/15 36/63/15 41/64/15 
s 1
f 39/65/5 29/66/5 30/67/5 37/68/5 
s 2
f 37/69/1 43/70/1 42/71/1 39/72/1 
f 45/73/6 46/74/6 47/75/6 48/76/6 
s 4
f 49/77/1 50/78/1 51/79/1 52/80/1 
s 8
f 45/81/4 48/82/4 50/83/4 49/84/4 
s 2
f 53/85/6 54/86/6 55/87/6 56/88/6 
s 4
f 57/89/1 58/90/1 59/91/1 60/92/1 
s 32
f 55/93/19 54/94/19 59/95/19 58/96/19 
s 64
f 54/94/9 53/97/9 46/98/9 45/99/9 49/100/9 52/101/9 60/102/9 59/95/9 
s off
f 52/103/4 51/104/4 57/105/4 60/106/4 
s 16
f 51/107/2 50/83/2 48/82/2 47/108/2 56/109/2 55/93/2 58/96/2 57/110/2 
s off
f 47/111/4 46/112/4 53/113/4 56/114/4 
s 2
f 61/115/9 62/116/9 63/117/9 64/118/9 
s 4
f 65/119/2 66/120/2 67/121/2 68/122/2 
s 8
f 61/123/4 64/124/4 66/125/4 65/126/4 
s 16
f 64/127/6 63/128/6 67/129/6 66/130/6 
s 32
f 63/131/5 62/132/5 68/133/5 67/134/5 
s 64
f 62/135/1 61/136/1 65/137/1 68/138/1 
s 2
f 69/139/9 70/140/9 71/141/9 72/142/9 
s 4
f 73/143/3 74/144/3 75/145/3 76/146/3 
s 8
f 69/147/4 72/148/4 74/149/4 73/150/4 
s 16
f 72/151/6 71/152/6 75/153/6 74/154/6 
s 32
f 71/155/5 70/156/5 76/157/5 75/158/5 
s 64
f 70/159/1 69/160/1 73/161/1 76/162/1 
s 1
f 77/163/4 78/164/4 79/165/4 80/166/4 81/167/4 82/168/4 
f 83/169/5 84/170/5 85/171/5 86/172/5 87/173/5 88/174/5 
s 2
f 77/175/14 82/176/14 84/177/14 83/178/14 
f 81/179/6 80/180/6 86/181/6 85/182/6 
s 4
f 80/183/9 79/184/9 87/185/9 86/186/9 
s 2
f 79/187/14 78/188/14 88/189/14 87/190/14 
s 4
f 78/191/2 77/192/2 83/193/2 88/194/2 
f 82/195/2 81/196/2 85/197/2 84/198/2 
s 1
f 89/199/5 90/200/5 91/201/5 92/202/5 93/203/5 94/204/5 
f 95/205/4 96/206/4 97/207/4 98/208/4 99/209/4 100/210/4 
s 2
f 89/211/6 94/212/15 96/213/15 95/214/15 
f 93/215/14 92/216/14 98/217/1 97/218/14 
s 4
f 92/219/9 91/220/9 99/221/9 98/222/9 
s 2
f 91/223/6 90/224/6 100/225/6 99/226/6 
s 4
f 90/227/20 89/228/20 95/229/20 100/230/20 
f 94/231/2 93/232/2 97/233/2 96/234/2 
s 2
f 101/235/15 102/236/15 103/237/15 104/238/15 
s 4
f 105/239/1 106/240/1 107/241/1 108/242/1 
s 8
f 101/243/21 104/244/21 106/245/21 105/246/21 
s 16
f 104/247/2 103/248/2 107/249/2 106/250/2 
s 32
f 103/251/5 102/252/5 108/253/5 107/254/5 
s 64
f 102/255/9 101/256/9 105/257/9 108/258/9 
s 2
f 109/259/4 110/260/4 111/261/4 112/262/4 
s 4
f 113/263/5 114/264/5 115/265/5 116/266/5 
s 8
f 109/267/2 112/268/2 114/269/2 113/270/2 
s 16
f 112/271/6 111/272/6 115/273/6 114/274/6 
s 32
f 111/275/9 110/276/9 116/277/9 115/278/9 
s 64
f 110/279/22 109/280/22 113/281/14 116/282/22 
s 2
f 117/73/6 118/74/6 119/75/6 120/76/6 
s 4
f 121/77/1 122/78/1 123/79/1 124/80/1 
s 8
f 117/81/4 120/82/4 122/83/4 121/84/4 
s 2
f 125/85/6 126/86/6 127/87/6 128/88/6 
s 4
f 129/89/1 130/90/1 131/91/1 132/92/1 
s 32
f 127/93/19 126/94/19 131/95/19 130/96/19 
s 64
f 126/94/9 125/97/9 118/98/9 117/99/9 121/100/9 124/101/9 132/102/9 131/95/9 
s off
f 124/103/4 123/104/4 129/105/4 132/106/4 
s 16
f 123/107/2 122/83/2 120/82/2 119/108/2 128/109/2 127/93/2 130/96/2 129/110/2 
s off
f 119/111/4 118/112/4 125/113/4 128/114/4 
s 2
f 133/283/4 134/284/4 135/285/4 136/286/4 
s 4
f 137/287/5 138/288/5 139/289/5 140/290/5 
s 8
f 133/291/2 137/292/2 140/293/2 134/294/2 
s 16
f 134/295/1 140/296/1 139/297/1 135/298/1 
s 32
f 135/299/9 139/300/9 138/301/9 136/302/9 
s 64
f 136/303/6 138/304/6 137/305/6 133/306/6 
s 8
f 141/307/3 142/308/3 143/309/3 144/310/2 
s 2
f 145/311/5 146/312/5 147/313/5 148/314/5 
s 1
f 149/315/3 145/316/3 148/317/3 150/318/2 
s 2
f 142/319/23 149/320/18 150/321/23 143/322/23 
f 151/323/4 152/324/4 153/325/4 154/326/4 
s 8
f 155/327/3 151/328/3 154/329/3 156/330/3 
s 3
f 156/331/4 157/332/4 158/333/4 155/334/4 
s 8
f 146/335/9 158/336/9 157/337/9 147/338/9 
s 1
f 144/339/4 159/340/4 160/341/4 141/342/4 
s 8
f 153/343/9 152/344/9 160/345/9 159/346/9 
s 4
f 146/347/6 145/348/6 149/349/6 142/350/6 141/351/6 160/352/6 152/353/6 151/354/6 155/355/6 158/356/6 
f 153/357/1 159/358/1 144/359/1 143/360/1 150/361/1 148/362/1 147/363/1 157/364/1 156/365/1 154/366/1 
s 8
f 161/367/2 162/368/2 163/369/2 164/370/2 
s 2
f 165/371/5 166/372/5 167/373/5 168/374/5 
s 1
f 169/375/2 165/376/2 168/377/2 170/378/2 
s 2
f 162/379/18 169/380/18 170/381/18 163/382/18 
f 171/383/4 172/384/4 173/385/4 174/386/4 
s 8
f 175/387/2 171/388/2 174/389/2 176/390/2 
s 3
f 176/391/4 177/392/4 178/393/4 175/394/4 
s 8
f 166/395/9 178/396/9 177/397/9 167/398/9 
s 1
f 164/399/4 179/400/4 180/401/4 161/402/4 
s 8
f 173/403/16 172/404/16 180/405/16 179/406/16 
s 4
f 166/407/6 165/408/6 169/409/6 162/410/6 161/411/6 180/412/6 172/413/6 171/414/6 175/415/6 178/416/6 
f 173/417/1 179/418/1 164/419/1 163/420/1 170/421/1 168/422/1 167/423/1 177/424/1 176/425/1 174/426/1 
# 138 polygons

