# Blender v2.78 (sub 0) OBJ File: ''
# www.blender.org
mtllib IKEA.ART.50205438.mtl
o model_model.053
v 0.211500 0.048500 0.008000
v 0.185489 -0.048500 0.008000
v -0.211500 -0.048500 0.008000
v 0.185489 0.048500 0.008000
v -0.211500 0.048500 0.008000
v 0.185489 -0.048500 -0.008000
v -0.211500 -0.048500 -0.008000
v 0.185489 0.048500 -0.008000
v -0.211500 0.048500 -0.008000
v -0.211500 0.048500 -0.008000
v -0.211500 -0.048500 -0.008000
v -0.211500 -0.048500 0.008000
v -0.211500 0.048500 0.008000
v -0.211500 -0.048500 -0.008000
v 0.185489 -0.048500 -0.008000
v -0.211500 0.048500 -0.008000
v 0.185489 0.048500 -0.008000
v -0.211500 -0.048500 0.008000
v 0.185489 -0.048500 0.008000
v -0.211500 0.048500 0.008000
v 0.185489 0.048500 0.008000
v 0.185489 -0.048500 -0.008000
v 0.185489 0.048500 -0.008000
v 0.185489 -0.048500 0.008000
v 0.185489 0.048500 0.008000
vt 394.6359 -0.8503
vt 394.6359 96.1496
vt -2.3641 96.1496
vt -2.3641 -0.8503
vt 409.5620 -1.0216
vt 806.5620 -1.0216
vt 806.5620 95.9784
vt 409.5620 95.9784
vt 826.3938 -0.2217
vt 842.3940 -0.2217
vt 842.3938 396.7784
vt 826.3938 396.7784
vt 979.7722 -0.8042
vt 979.7722 96.1958
vt 963.7720 96.1958
vt 963.7722 -0.8042
vt 873.3726 396.8070
vt 873.3726 -0.0084
vt 889.0903 -0.0083
vt 889.0903 396.8070
vt 917.9114 96.1958
vt 917.9116 -0.8042
vt 933.9116 -0.8042
vt 933.9116 96.1958
vn 0.0000 0.0000 1.0000
vn -0.0000 -0.0000 -1.0000
vn 0.0000 -1.0000 0.0000
vn 1.0000 0.0000 0.0000
vn 0.0000 1.0000 0.0000
vn -1.0000 0.0000 0.0000
usemtl MAT003015V1-Appl
s off
f 2/1/1 4/2/1 5/3/1
f 5/3/1 3/4/1 2/1/1
f 6/5/2 7/6/2 9/7/2
f 9/7/2 8/8/2 6/5/2
f 15/9/3 19/10/3 18/11/3
f 18/11/3 14/12/3 15/9/3
f 22/13/4 23/14/4 25/15/4
f 25/15/4 24/16/4 22/13/4
f 17/17/5 16/18/5 20/19/5
f 20/19/5 21/20/5 17/17/5
f 10/21/6 11/22/6 12/23/6
f 12/23/6 13/24/6 10/21/6
